<?xml version="1.0" standalone="no"?>
<!DOCTYPE svg PUBLIC "-//W3C//DTD SVG 20010904//EN"
 "http://www.w3.org/TR/2001/REC-SVG-20010904/DTD/svg10.dtd">
<svg version="1.0" xmlns="http://www.w3.org/2000/svg"
 width="512.000000pt" height="512.000000pt" viewBox="0 0 512.000000 512.000000"
 preserveAspectRatio="xMidYMid meet">
<metadata>
Created by potrace 1.14, written by Peter Selinger 2001-2017
</metadata>
<g transform="translate(0.000000,512.000000) scale(0.100000,-0.100000)"
fill="#000000" stroke="none">
<path d="M1580 4160 c-64 -23 -112 -60 -157 -119 -67 -86 -63 -6 -63 -1482 0
-1484 -4 -1382 66 -1481 125 -178 405 -175 535 5 62 86 60 12 59 1477 0 734
-4 1352 -9 1372 -20 87 -102 182 -188 220 -67 30 -175 33 -243 8z"/>
<path d="M2460 3423 c-87 -30 -147 -85 -189 -173 l-26 -55 0 -1005 0 -1005 27
-56 c59 -118 158 -181 287 -182 62 0 86 5 132 26 70 34 122 85 157 156 l27 56
2 992 c1 708 -2 1003 -10 1030 -39 132 -159 225 -297 229 -38 1 -84 -4 -110
-13z"/>
<path d="M3318 3420 c-113 -42 -196 -142 -214 -255 -4 -28 -7 -475 -7 -995 1
-931 1 -946 21 -1004 35 -96 89 -154 188 -197 72 -33 181 -31 256 3 71 33 133
94 167 167 l26 56 0 1000 0 1000 -23 47 c-61 122 -162 189 -291 193 -53 1 -90
-3 -123 -15z"/>
</g>
</svg>
