<?xml version="1.0" standalone="no"?>
<!DOCTYPE svg PUBLIC "-//W3C//DTD SVG 20010904//EN"
 "http://www.w3.org/TR/2001/REC-SVG-20010904/DTD/svg10.dtd">
<svg version="1.0" xmlns="http://www.w3.org/2000/svg"
 width="512.000000pt" height="512.000000pt" viewBox="0 0 512.000000 512.000000"
 preserveAspectRatio="xMidYMid meet">
<metadata>
Created by potrace 1.14, written by Peter Selinger 2001-2017
</metadata>
<g transform="translate(0.000000,512.000000) scale(0.100000,-0.100000)"
fill="#000000" stroke="none">
<path d="M1594 4163 c-62 -18 -139 -74 -175 -128 -62 -91 -59 -8 -59 -1478 1
-1305 1 -1344 20 -1396 28 -78 84 -139 165 -181 62 -32 76 -35 149 -35 69 1
90 5 139 30 73 36 139 108 167 182 20 55 21 62 21 1397 0 1470 2 1397 -60
1483 -83 115 -231 166 -367 126z"/>
<path d="M2478 3426 c-54 -14 -122 -56 -156 -95 -13 -14 -35 -51 -50 -81 l-27
-55 0 -1005 0 -1005 26 -56 c33 -69 88 -124 159 -158 77 -36 182 -36 260 1 89
41 149 109 174 198 13 48 15 177 13 1040 l-2 985 -26 56 c-65 138 -227 215
-371 175z"/>
<path d="M3345 3427 c-82 -20 -174 -97 -218 -182 -8 -17 -18 -53 -23 -80 -4
-28 -7 -473 -7 -990 0 -1035 -1 -1005 61 -1091 63 -87 149 -134 252 -138 117
-6 219 41 285 132 69 96 66 47 63 1137 l-3 980 -23 46 c-58 116 -166 190 -284
194 -35 1 -81 -3 -103 -8z"/>
</g>
</svg>
